<svg width="22" height="28" viewBox="0 0 22 28" fill="none" xmlns="http://www.w3.org/2000/svg">
<path d="M12.2183 22.7944C12.2183 23.4917 12.2183 24.0716 12.2183 24.733C11.9674 24.7468 11.7179 24.7717 11.4698 24.7717C8.1451 24.7745 4.81903 24.7745 1.49436 24.7731C0.264859 24.7717 0 24.5038 0 23.2694C0 16.0242 0 8.77766 0 1.53112C0 0.277333 0.274617 0.00945444 1.55291 0.00945444C4.94868 0.00807362 8.34584 0.0177394 11.7416 -0.000211301C12.3313 -0.00297294 12.7773 0.168249 13.1927 0.588018C14.6369 2.05031 16.0964 3.50155 17.581 4.92379C18.062 5.38499 18.3143 5.86275 18.2585 6.53383C18.2111 7.11239 18.2488 7.69924 18.2488 8.23914C17.5573 8.23914 16.9496 8.23914 16.2637 8.23914C16.2637 7.66748 16.2637 7.11515 16.2637 6.51035C14.7666 6.51035 13.3475 6.51035 11.8294 6.51035C11.8294 4.99836 11.8294 3.53331 11.8294 2.02131C8.51312 2.02131 5.29717 2.02131 2.03244 2.02131C2.03244 8.92541 2.03244 15.8267 2.03244 22.793C5.41009 22.7944 8.77379 22.7944 12.2183 22.7944Z" fill="white"/>
<path d="M17.2298 18.9683C14.5686 18.9725 12.4163 16.8336 12.44 14.2128C12.4637 11.6127 14.5965 9.50832 17.2158 9.50142C19.8575 9.49452 22.0223 11.6514 22 14.2694C21.9777 16.8847 19.8658 18.9656 17.2298 18.9683Z" fill="white"/>
<path d="M20.6227 27.3209C19.612 26.6042 18.6558 25.9635 17.7483 25.2621C17.3287 24.939 17.0471 24.9652 16.6442 25.2773C15.7535 25.9663 14.8223 26.6042 13.8088 27.3333C13.8088 24.5703 13.8088 21.9357 13.8088 19.2224C16.0713 21.0106 18.3156 21.0465 20.6241 19.221C20.6227 21.915 20.6227 24.5579 20.6227 27.3209Z" fill="white"/>
</svg>
