<svg width="33" height="41" viewBox="0 0 33 41" fill="none" xmlns="http://www.w3.org/2000/svg">
<path d="M18.3275 34.1917C18.3275 35.2376 18.3275 36.1076 18.3275 37.0997C17.9511 37.1204 17.5769 37.1577 17.2047 37.1577C12.2177 37.1618 7.22855 37.1618 2.24154 37.1597C0.397288 37.1577 0 36.7559 0 34.9042C0 24.0364 0 13.1666 0 2.2968C0 0.416122 0.411925 0.0143037 2.32936 0.0143037C7.42301 0.0122325 12.5188 0.0267311 17.6124 -0.000194881C18.4969 -0.00433734 19.166 0.252495 19.7891 0.882149C21.9554 3.07558 24.1447 5.25244 26.3716 7.38581C27.093 8.0776 27.4714 8.79425 27.3878 9.80087C27.3167 10.6687 27.3731 11.549 27.3731 12.3588C26.336 12.3588 25.4243 12.3588 24.3956 12.3588C24.3956 11.5013 24.3956 10.6729 24.3956 9.76565C22.1499 9.76565 20.0212 9.76565 17.7441 9.76565C17.7441 7.49766 17.7441 5.30008 17.7441 3.03209C12.7697 3.03209 7.94576 3.03209 3.04866 3.03209C3.04866 13.3882 3.04866 23.7402 3.04866 34.1896C8.11513 34.1917 13.1607 34.1917 18.3275 34.1917Z" fill="white"/>
<path d="M25.8451 28.4525C21.8534 28.4587 18.6249 25.2504 18.6604 21.3192C18.696 17.419 21.8952 14.2625 25.8242 14.2521C29.7866 14.2418 33.0339 17.477 33.0005 21.4041C32.967 25.327 29.7992 28.4483 25.8451 28.4525Z" fill="white"/>
<path d="M30.9337 40.9813C29.4177 39.9064 27.9833 38.9453 26.622 37.8931C25.9926 37.4085 25.5703 37.4478 24.966 37.9159C23.6298 38.9495 22.233 39.9064 20.7129 41C20.7129 36.8555 20.7129 32.9035 20.7129 28.8336C24.1066 31.5158 27.4731 31.5697 30.9357 28.8315C30.9337 32.8725 30.9337 36.8368 30.9337 40.9813Z" fill="white"/>
</svg>
