<svg width="27" height="20" viewBox="0 0 27 20" fill="none" xmlns="http://www.w3.org/2000/svg">
<path d="M5.27691 2.69802C5.25871 4.16188 4.03707 5.3584 2.59968 5.3217C1.1519 5.2837 -0.0320533 4.04656 -0.00086235 2.60235C0.0316282 1.128 1.22078 -0.0200196 2.69326 -0.000361641C4.16313 0.0206068 5.2951 1.20271 5.27691 2.69802Z" fill="white"/>
<path d="M25.0372 3.84113H9.31175C8.66584 3.84113 8.14209 3.31299 8.14209 2.66165C8.14209 2.01032 8.66584 1.48218 9.31175 1.48218H25.0372C25.6831 1.48218 26.2068 2.01032 26.2068 2.66165C26.2068 3.31299 25.6831 3.84113 25.0372 3.84113Z" fill="white"/>
<path d="M5.27776 10.0374C5.25957 11.5012 4.03792 12.6978 2.60054 12.6611C1.15276 12.6231 -0.0311988 11.3859 -7.85768e-06 9.94171C0.0324827 8.46736 1.22164 7.31934 2.69411 7.33899C4.16398 7.35996 5.29596 8.54206 5.27776 10.0374Z" fill="white"/>
<path d="M25.0372 11.1801H9.31175C8.66584 11.1801 8.14209 10.652 8.14209 10.0006C8.14209 9.34931 8.66584 8.82117 9.31175 8.82117H25.0372C25.6831 8.82117 26.2068 9.34931 26.2068 10.0006C26.2068 10.652 25.6831 11.1801 25.0372 11.1801Z" fill="white"/>
<path d="M5.27776 17.3763C5.25957 18.8401 4.03792 20.0367 2.60054 20C1.15276 19.962 -0.0311988 18.7248 -7.85768e-06 17.2806C0.0324827 15.8063 1.22164 14.6569 2.69411 14.6779C4.16398 14.6989 5.29596 15.881 5.27776 17.3763Z" fill="white"/>
<path d="M25.0372 18.5191H9.31175C8.66584 18.5191 8.14209 17.991 8.14209 17.3396C8.14209 16.6883 8.66584 16.1602 9.31175 16.1602H25.0372C25.6831 16.1602 26.2068 16.6883 26.2068 17.3396C26.2068 17.991 25.6831 18.5191 25.0372 18.5191Z" fill="white"/>
</svg>
