<svg width="38" height="29" viewBox="0 0 38 29" fill="none" xmlns="http://www.w3.org/2000/svg">
<path d="M7.65266 3.91243C7.62628 6.03504 5.85489 7.76998 3.77069 7.71677C1.67141 7.66167 -0.0453298 5.86781 -0.000102946 3.77372C0.0470084 1.63591 1.77128 -0.0287232 3.90637 -0.000219204C6.03769 0.0301851 7.67904 1.74423 7.65266 3.91243Z" fill="white"/>
<path d="M36.3045 5.56968H13.5026C12.5661 5.56968 11.8066 4.80388 11.8066 3.85944C11.8066 2.91501 12.5661 2.1492 13.5026 2.1492H36.3045C37.2411 2.1492 38.0005 2.91501 38.0005 3.85944C38.0005 4.80388 37.2411 5.56968 36.3045 5.56968Z" fill="white"/>
<path d="M7.65364 14.5542C7.62726 16.6768 5.85587 18.4117 3.77166 18.3585C1.67238 18.3034 -0.0443533 16.5095 0.000873616 14.4155C0.047985 12.2777 1.77226 10.613 3.90735 10.6415C6.03866 10.6719 7.68002 12.386 7.65364 14.5542Z" fill="white"/>
<path d="M36.3045 16.2112H13.5026C12.5661 16.2112 11.8066 15.4454 11.8066 14.501C11.8066 13.5565 12.5661 12.7907 13.5026 12.7907H36.3045C37.2411 12.7907 38.0005 13.5565 38.0005 14.501C38.0005 15.4454 37.2411 16.2112 36.3045 16.2112Z" fill="white"/>
<path d="M7.65364 25.1957C7.62726 27.3183 5.85587 29.0532 3.77166 29C1.67238 28.9449 -0.0443533 27.151 0.000873616 25.057C0.047985 22.9191 1.77226 21.2526 3.90735 21.283C6.03866 21.3134 7.68002 23.0275 7.65364 25.1957Z" fill="white"/>
<path d="M36.3045 26.8527H13.5026C12.5661 26.8527 11.8066 26.0869 11.8066 25.1425C11.8066 24.198 12.5661 23.4322 13.5026 23.4322H36.3045C37.2411 23.4322 38.0005 24.198 38.0005 25.1425C38.0005 26.0869 37.2411 26.8527 36.3045 26.8527Z" fill="white"/>
</svg>
