<svg width="46" height="42" viewBox="0 0 46 42" fill="none" xmlns="http://www.w3.org/2000/svg">
<path d="M24.5498 40.6243C24.7092 40.1047 24.8041 39.7572 24.9207 39.4168C27.8448 30.8846 30.783 22.3577 33.679 13.8155C33.962 12.9801 34.371 12.6877 35.2381 12.7018C38.1013 12.7469 40.9663 12.7053 43.8301 12.7346C44.2314 12.7387 44.6304 12.9543 45.0306 13.0715C44.9069 13.4341 44.856 13.8448 44.6497 14.1518C38.5835 23.1896 32.5055 32.2187 26.4094 41.236C26.1897 41.5606 25.7679 41.7481 25.4398 42C25.1287 41.519 24.8176 41.038 24.5498 40.6243Z" fill="white"/>
<path d="M5.51209 12.7199C7.00493 12.7193 8.49836 12.7492 9.99003 12.707C10.7159 12.6865 11.0651 12.9689 11.2971 13.6503C14.2594 22.3407 17.2492 31.0223 20.2137 39.7115C20.3368 40.0719 20.3877 40.5206 20.2864 40.8757C20.1897 41.2143 19.9003 41.5881 19.5939 41.7352C19.4532 41.8026 18.9922 41.417 18.8076 41.1469C12.647 32.1226 6.49873 23.0895 0.359819 14.0505C-0.274695 13.116 -0.0819393 12.748 1.033 12.727C2.52642 12.6994 4.01926 12.7205 5.51209 12.7199Z" fill="white"/>
<path d="M22.575 12.7193C24.5501 12.7188 26.5251 12.7094 28.5001 12.7223C29.7791 12.7305 29.915 12.8933 29.5371 14.044C27.4391 20.4266 25.3334 26.8063 23.2037 33.1784C23.0924 33.5117 22.7408 33.7643 22.5012 34.0549C22.2593 33.7748 21.9001 33.534 21.7929 33.2094C19.6732 26.7911 17.5962 20.3593 15.4724 13.9421C15.1425 12.9449 15.521 12.71 16.4074 12.7158C18.4639 12.7293 20.5198 12.7199 22.575 12.7193Z" fill="white"/>
<path d="M4.90316 8.83729C3.77709 8.83729 2.64927 8.86482 1.52495 8.8203C1.20272 8.80741 0.739869 8.66504 0.617419 8.43537C0.515476 8.24379 0.736352 7.75868 0.951957 7.53721C2.6645 5.78015 4.41335 4.05883 6.1423 2.31758C6.73228 1.7235 7.19807 1.76568 7.48222 2.57244C8.08217 4.27619 8.6452 5.99283 9.23929 7.69892C9.52168 8.50978 9.193 8.83553 8.40264 8.8367C7.23615 8.83787 6.06965 8.8367 4.90316 8.83729Z" fill="white"/>
<path d="M40.002 8.83551C38.8736 8.83551 37.7446 8.84606 36.6162 8.83199C35.8399 8.82203 35.5042 8.51972 35.8088 7.68308C36.4152 6.01976 36.9771 4.34062 37.5378 2.66148C37.8301 1.78617 38.2555 1.66372 38.9158 2.32811C40.6488 4.07228 42.3988 5.80005 44.1213 7.55418C44.3235 7.76041 44.5777 8.22326 44.4934 8.33985C44.3164 8.58475 43.9356 8.80036 43.6292 8.81325C42.4217 8.86598 41.2113 8.83551 40.002 8.83551Z" fill="white"/>
<path d="M15.1954 0.00684521C16.3256 0.00743109 17.4564 -0.0177619 18.5848 0.0261793C18.859 0.0367252 19.2703 0.217177 19.354 0.425165C19.4396 0.637841 19.279 1.05909 19.088 1.25478C17.4259 2.95969 15.7368 4.63883 14.0465 6.31622C13.4067 6.95131 12.9948 6.6988 12.7371 5.94067C12.1928 4.33828 11.6649 2.73003 11.0907 1.13877C10.7831 0.286311 11.1599 0.0150475 11.925 0.00860278C13.0159 -0.000771338 14.1057 0.00567344 15.1954 0.00684521Z" fill="white"/>
<path d="M29.8668 0.00626126C30.9519 0.00567537 32.0363 0.00508948 33.1214 0.00567536C33.9199 0.00626124 34.2316 0.346659 33.951 1.14698C33.3809 2.77397 32.8255 4.40624 32.2666 6.03734C31.993 6.83648 31.5694 6.96421 30.9565 6.34962C29.254 4.64294 27.5397 2.94798 25.8558 1.22314C25.6672 1.0298 25.4961 0.603276 25.5863 0.412278C25.6865 0.200774 26.0925 0.0337977 26.3714 0.0238377C27.5361 -0.0171741 28.7021 0.00743302 29.8668 0.00626126Z" fill="white"/>
<path d="M22.4939 8.83727C21.3269 8.83785 20.158 8.86949 18.9927 8.81852C18.6417 8.80329 18.3008 8.55722 17.9551 8.4166C18.0892 8.10491 18.1508 7.7235 18.3705 7.49384C19.4825 6.33028 20.6496 5.21886 21.7692 4.06232C22.2672 3.54792 22.6644 3.52214 23.1765 4.05588C24.319 5.24639 25.5136 6.38652 26.659 7.57469C26.8547 7.77799 27.082 8.25021 26.9935 8.36505C26.8078 8.60467 26.4258 8.80387 26.1165 8.81676C24.9107 8.86656 23.702 8.83668 22.4939 8.83727Z" fill="white"/>
</svg>
