<svg width="26" height="24" viewBox="0 0 26 24" fill="none" xmlns="http://www.w3.org/2000/svg">
<path d="M14.0383 23.2139C14.1294 22.917 14.1836 22.7185 14.2502 22.5239C15.9212 17.6484 17.6002 12.7759 19.255 7.89464C19.4167 7.41723 19.6504 7.25017 20.1459 7.25821C21.782 7.28399 23.4192 7.26022 25.0556 7.27696C25.2849 7.2793 25.5129 7.4025 25.7416 7.46946C25.6709 7.6767 25.6418 7.91138 25.524 8.08681C22.0576 13.2513 18.5844 18.4107 15.101 23.5635C14.9754 23.7489 14.7344 23.8561 14.5469 24C14.3691 23.7252 14.1913 23.4503 14.0383 23.2139Z" fill="white"/>
<path d="M3.15989 7.26846C4.01294 7.26812 4.86633 7.2852 5.71871 7.26109C6.13351 7.24937 6.33304 7.41074 6.46562 7.8001C8.15832 12.766 9.86677 17.7269 11.5608 22.6922C11.6311 22.8981 11.6602 23.1545 11.6023 23.3574C11.5471 23.5509 11.3817 23.7645 11.2066 23.8486C11.1263 23.8871 10.8628 23.6668 10.7573 23.5124C7.23698 18.3557 3.72368 13.1939 0.215742 8.02876C-0.146836 7.49477 -0.0366905 7.28453 0.600417 7.27247C1.4538 7.25674 2.30685 7.26879 3.15989 7.26846Z" fill="white"/>
<path d="M12.9098 7.26806C14.0384 7.26773 15.167 7.26237 16.2956 7.26974C17.0264 7.27442 17.1041 7.3675 16.8882 8.02502C15.6893 11.6722 14.486 15.3177 13.2691 18.9589C13.2055 19.1494 13.0046 19.2937 12.8676 19.4598C12.7294 19.2997 12.5242 19.1621 12.4629 18.9767C11.2516 15.309 10.0648 11.6337 8.85116 7.96677C8.66268 7.39696 8.87896 7.26271 9.3855 7.26605C10.5606 7.27375 11.7354 7.2684 12.9098 7.26806Z" fill="white"/>
<path d="M2.81177 5.04979C2.16831 5.04979 1.52384 5.06553 0.881376 5.04008C0.697241 5.03272 0.432757 4.95136 0.362786 4.82013C0.304532 4.71065 0.430747 4.43344 0.55395 4.30689C1.53254 3.30286 2.53189 2.31925 3.51985 1.32425C3.85699 0.984778 4.12315 1.00888 4.28552 1.46989C4.62835 2.44346 4.95008 3.42439 5.28956 4.3993C5.45093 4.86264 5.26311 5.04879 4.81148 5.04946C4.14491 5.05013 3.47834 5.04946 2.81177 5.04979Z" fill="white"/>
<path d="M22.8682 5.04891C22.2234 5.04891 21.5782 5.05494 20.9334 5.04691C20.4898 5.04121 20.298 4.86846 20.4721 4.39038C20.8186 3.43992 21.1396 2.48041 21.46 1.5209C21.6271 1.02073 21.8702 0.950758 22.2475 1.33041C23.2378 2.32708 24.2378 3.31437 25.2221 4.31673C25.3376 4.43458 25.4829 4.69906 25.4347 4.76568C25.3336 4.90562 25.1159 5.02883 24.9408 5.03619C24.2508 5.06632 23.5592 5.04891 22.8682 5.04891Z" fill="white"/>
<path d="M8.693 0.00392898C9.33881 0.00426377 9.98496 -0.0101322 10.6298 0.014977C10.7864 0.0210032 11.0215 0.124118 11.0693 0.242969C11.1182 0.364497 11.0265 0.605211 10.9173 0.71703C9.96755 1.69127 9.00235 2.65077 8.03648 3.60928C7.67089 3.97219 7.43553 3.82789 7.28822 3.39468C6.9772 2.47903 6.67555 1.56003 6.34746 0.650742C6.17169 0.163623 6.38697 0.00861599 6.82421 0.00493331C7.44759 -0.000423325 8.07029 0.0032594 8.693 0.00392898Z" fill="white"/>
<path d="M17.0766 0.00357785C17.6966 0.00324306 18.3163 0.00290827 18.9364 0.00324306C19.3927 0.00357785 19.5708 0.198091 19.4104 0.655413C19.0847 1.58512 18.7673 2.51785 18.4479 3.4499C18.2916 3.90655 18.0495 3.97954 17.6993 3.62834C16.7264 2.6531 15.7468 1.68456 14.7846 0.698936C14.6768 0.588455 14.5791 0.344728 14.6306 0.235587C14.6879 0.114728 14.9199 0.0193129 15.0792 0.0136215C15.7448 -0.00981375 16.411 0.00424743 17.0766 0.00357785Z" fill="white"/>
<path d="M12.864 5.04988C12.1971 5.05021 11.5292 5.06829 10.8633 5.03917C10.6628 5.03046 10.4679 4.88985 10.2704 4.8095C10.3471 4.63139 10.3822 4.41344 10.5077 4.28221C11.1432 3.61731 11.8101 2.98222 12.4499 2.32134C12.7344 2.0274 12.9614 2.01267 13.254 2.31766C13.9069 2.99795 14.5895 3.64945 15.244 4.32841C15.3559 4.44458 15.4858 4.71442 15.4352 4.78004C15.3291 4.91697 15.1108 5.0308 14.934 5.03816C14.245 5.06662 13.5544 5.04954 12.864 5.04988Z" fill="white"/>
</svg>
