<svg width="26" height="26" viewBox="0 0 26 26" fill="none" xmlns="http://www.w3.org/2000/svg">
<path fill-rule="evenodd" clip-rule="evenodd" d="M12.9462 25.8923C20.0961 25.8923 25.8923 20.0961 25.8923 12.9462C25.8923 5.79619 20.0961 0 12.9462 0C5.79619 0 0 5.79619 0 12.9462C0 20.0961 5.79619 25.8923 12.9462 25.8923Z" fill="white"/>
<path fill-rule="evenodd" clip-rule="evenodd" d="M18.5071 4.82509V8.17329L16.52 8.17846C14.9623 8.17846 14.6621 8.91848 14.6621 10V12.396H18.3726L17.8913 16.1427H14.6621V25.8923H10.7918V16.1427H7.55176V12.396H10.7918V9.63262C10.7918 6.42415 12.7474 4.67502 15.6143 4.67502C16.981 4.67502 18.1604 4.77852 18.5071 4.82509Z" fill="#262626" fill-opacity="0.91"/>
</svg>
