<svg width="34" height="34" viewBox="0 0 34 34" fill="none" xmlns="http://www.w3.org/2000/svg">
<path fill-rule="evenodd" clip-rule="evenodd" d="M17 34C26.3888 34 34 26.3888 34 17C34 7.61116 26.3888 0 17 0C7.61116 0 0 7.61116 0 17C0 26.3888 7.61116 34 17 34Z" fill="black" fill-opacity="0.75"/>
<path fill-rule="evenodd" clip-rule="evenodd" d="M16.9999 5.66669C20.0778 5.66669 20.4637 5.67973 21.6726 5.73489C22.8789 5.78991 23.7027 5.98151 24.4236 6.26169C25.1689 6.55128 25.8009 6.9388 26.431 7.56886C27.0611 8.19896 27.4486 8.83099 27.7382 9.57626C28.0183 10.2971 28.2099 11.121 28.265 12.3273C28.3201 13.5361 28.3332 13.9221 28.3332 17C28.3332 20.078 28.3201 20.4639 28.265 21.6727C28.2099 22.879 28.0183 23.7029 27.7382 24.4238C27.4486 25.1691 27.0611 25.8011 26.431 26.4312C25.8009 27.0612 25.1689 27.4488 24.4236 27.7384C23.7027 28.0185 22.8789 28.2101 21.6726 28.2652C20.4637 28.3203 20.0778 28.3334 16.9999 28.3334C13.9219 28.3334 13.5359 28.3203 12.3271 28.2652C11.1208 28.2101 10.297 28.0185 9.57607 27.7384C8.83081 27.4488 8.19877 27.0612 7.56868 26.4312C6.93862 25.8011 6.5511 25.1691 6.26151 24.4238C5.98133 23.7029 5.78973 22.879 5.73471 21.6727C5.67955 20.4639 5.6665 20.078 5.6665 17C5.6665 13.9221 5.67955 13.5361 5.73471 12.3273C5.78973 11.121 5.98133 10.2971 6.26151 9.57626C6.5511 8.83099 6.93862 8.19896 7.56868 7.56886C8.19877 6.9388 8.83081 6.55128 9.57607 6.26169C10.297 5.98151 11.1208 5.78991 12.3271 5.73489C13.5359 5.67973 13.9219 5.66669 16.9999 5.66669ZM16.9999 7.70872C13.9737 7.70872 13.6153 7.72029 12.4202 7.77481C11.3152 7.8252 10.7151 8.00983 10.3158 8.16504C9.78675 8.37063 9.40921 8.61622 9.01265 9.01283C8.61603 9.4094 8.37045 9.78693 8.16485 10.3159C8.00964 10.7153 7.82502 11.3154 7.77463 12.4204C7.7201 13.6154 7.70854 13.9739 7.70854 17C7.70854 20.0261 7.7201 20.3846 7.77463 21.5797C7.82502 22.6846 8.00964 23.2847 8.16485 23.6841C8.37045 24.2131 8.61608 24.5906 9.01265 24.9872C9.40921 25.3838 9.78675 25.6294 10.3158 25.835C10.7151 25.9902 11.3152 26.1748 12.4202 26.2252C13.6151 26.2798 13.9735 26.2913 16.9999 26.2913C20.0262 26.2913 20.3846 26.2798 21.5795 26.2252C22.6845 26.1748 23.2846 25.9902 23.6839 25.835C24.2129 25.6294 24.5905 25.3838 24.987 24.9872C25.3836 24.5906 25.6292 24.2131 25.8348 23.6841C25.99 23.2847 26.1747 22.6846 26.225 21.5797C26.2796 20.3846 26.2911 20.0261 26.2911 17C26.2911 13.9739 26.2796 13.6154 26.225 12.4204C26.1747 11.3154 25.99 10.7153 25.8348 10.3159C25.6292 9.78693 25.3836 9.4094 24.987 9.01283C24.5905 8.61622 24.2129 8.37063 23.6839 8.16504C23.2846 8.00983 22.6845 7.8252 21.5795 7.77481C20.3844 7.72029 20.026 7.70872 16.9999 7.70872ZM16.9999 11.1802C20.2141 11.1802 22.8197 13.7858 22.8197 17C22.8197 20.2142 20.2141 22.8198 16.9999 22.8198C13.7856 22.8198 11.18 20.2142 11.18 17C11.18 13.7858 13.7856 11.1802 16.9999 11.1802ZM16.9999 20.7778C19.0863 20.7778 20.7776 19.0864 20.7776 17C20.7776 14.9136 19.0863 13.2222 16.9999 13.2222C14.9134 13.2222 13.2221 14.9136 13.2221 17C13.2221 19.0864 14.9134 20.7778 16.9999 20.7778ZM24.4096 10.9503C24.4096 11.7014 23.8007 12.3103 23.0496 12.3103C22.2985 12.3103 21.6896 11.7014 21.6896 10.9503C21.6896 10.1992 22.2985 9.59025 23.0496 9.59025C23.8007 9.59025 24.4096 10.1992 24.4096 10.9503Z" fill="white"/>
</svg>
