<svg width="26" height="26" viewBox="0 0 26 26" fill="none" xmlns="http://www.w3.org/2000/svg">
<g clip-path="url(#clip0)">
<path fill-rule="evenodd" clip-rule="evenodd" d="M12.9462 25.8923C20.0961 25.8923 25.8923 20.0961 25.8923 12.9462C25.8923 5.79619 20.0961 0 12.9462 0C5.79619 0 0 5.79619 0 12.9462C0 20.0961 5.79619 25.8923 12.9462 25.8923Z" fill="white"/>
<path fill-rule="evenodd" clip-rule="evenodd" d="M12.9462 4.3154C15.2902 4.3154 15.5841 4.32533 16.5047 4.36734C17.4233 4.40924 18.0507 4.55515 18.5997 4.76852C19.1672 4.98905 19.6485 5.28417 20.1284 5.76398C20.6082 6.24382 20.9033 6.72514 21.1239 7.29269C21.3372 7.84167 21.4831 8.46907 21.525 9.38771C21.567 10.3083 21.577 10.6022 21.577 12.9462C21.577 15.2901 21.567 15.5841 21.525 16.5046C21.4831 17.4233 21.3372 18.0507 21.1239 18.5996C20.9033 19.1672 20.6082 19.6485 20.1284 20.1284C19.6485 20.6082 19.1672 20.9033 18.5997 21.1238C18.0507 21.3372 17.4233 21.4831 16.5047 21.525C15.5841 21.567 15.2902 21.5769 12.9462 21.5769C10.6022 21.5769 10.3083 21.567 9.38774 21.525C8.4691 21.4831 7.8417 21.3372 7.29272 21.1238C6.72517 20.9033 6.24385 20.6082 5.76401 20.1284C5.2842 19.6485 4.98908 19.1672 4.76855 18.5996C4.55518 18.0507 4.40927 17.4233 4.36737 16.5046C4.32537 15.5841 4.31543 15.2901 4.31543 12.9462C4.31543 10.6022 4.32537 10.3083 4.36737 9.38771C4.40927 8.46907 4.55518 7.84167 4.76855 7.29269C4.98908 6.72514 5.2842 6.24382 5.76401 5.76398C6.24385 5.28417 6.72517 4.98905 7.29272 4.76852C7.8417 4.55515 8.4691 4.40924 9.38774 4.36734C10.3083 4.32533 10.6022 4.3154 12.9462 4.3154ZM12.9462 5.87049C10.6417 5.87049 10.3687 5.87929 9.45863 5.92082C8.61714 5.95919 8.16014 6.09979 7.85602 6.21799C7.45316 6.37456 7.16565 6.56158 6.86365 6.86362C6.56161 7.16562 6.37459 7.45313 6.21802 7.85599C6.09982 8.16011 5.95922 8.61711 5.92085 9.4586C5.87933 10.3687 5.87052 10.6417 5.87052 12.9462C5.87052 15.2507 5.87933 15.5237 5.92085 16.4337C5.95922 17.2752 6.09982 17.7322 6.21802 18.0363C6.37459 18.4392 6.56164 18.7267 6.86365 19.0287C7.16565 19.3308 7.45316 19.5178 7.85602 19.6743C8.16014 19.7925 8.61714 19.9331 9.45863 19.9715C10.3686 20.013 10.6415 20.0218 12.9462 20.0218C15.2509 20.0218 15.5238 20.013 16.4338 19.9715C17.2753 19.9331 17.7323 19.7925 18.0364 19.6743C18.4392 19.5178 18.7267 19.3308 19.0287 19.0287C19.3308 18.7267 19.5178 18.4392 19.6744 18.0363C19.7926 17.7322 19.9332 17.2752 19.9715 16.4337C20.0131 15.5237 20.0219 15.2507 20.0219 12.9462C20.0219 10.6417 20.0131 10.3687 19.9715 9.4586C19.9332 8.61711 19.7926 8.16011 19.6744 7.85599C19.5178 7.45313 19.3308 7.16562 19.0287 6.86362C18.7267 6.56158 18.4392 6.37456 18.0364 6.21799C17.7323 6.09979 17.2753 5.95919 16.4338 5.92082C15.5237 5.87929 15.2507 5.87049 12.9462 5.87049ZM12.9462 8.51415C15.3939 8.51415 17.3782 10.4984 17.3782 12.9462C17.3782 15.3939 15.3939 17.3782 12.9462 17.3782C10.4984 17.3782 8.51418 15.3939 8.51418 12.9462C8.51418 10.4984 10.4984 8.51415 12.9462 8.51415ZM12.9462 15.8231C14.5351 15.8231 15.8231 14.5351 15.8231 12.9462C15.8231 11.3573 14.5351 10.0692 12.9462 10.0692C11.3573 10.0692 10.0693 11.3573 10.0693 12.9462C10.0693 14.5351 11.3573 15.8231 12.9462 15.8231ZM18.589 8.33905C18.589 8.91105 18.1253 9.37473 17.5533 9.37473C16.9813 9.37473 16.5176 8.91105 16.5176 8.33905C16.5176 7.76705 16.9813 7.30334 17.5533 7.30334C18.1253 7.30334 18.589 7.76705 18.589 8.33905Z" fill="#262626" fill-opacity="0.91"/>
</g>
<defs>
<clipPath id="clip0">
<rect width="25.8923" height="25.8923" fill="white"/>
</clipPath>
</defs>
</svg>
