<svg width="325" height="101" viewBox="0 0 325 101" fill="none" xmlns="http://www.w3.org/2000/svg">
<path d="M163.089 72.8737H135.389L130.491 85.2876H112.848L139.358 25.0074H159.12L185.63 85.2876H167.987L163.089 72.8737ZM149.244 38.001L139.788 61.8992H158.701L149.244 38.001Z" fill="white"/>
<path d="M230.988 42.4789C229.888 34.6228 222.461 33.7832 215.873 33.7832C209.116 33.7832 204.727 36.8217 204.727 40.8796C204.727 44.168 207.346 45.8572 211.655 46.5369L232.177 49.8252C243.153 51.5944 251.51 55.6523 251.51 66.7069C251.51 77.8514 243.913 86.9669 220.182 86.9669C205.577 86.9669 186.234 85.1078 186.234 66.2871H204.638C204.887 74.6429 213.084 75.9923 220.172 75.9923C227.939 75.9923 233.087 73.7934 233.087 68.476C233.087 63.8283 229.368 62.5689 222.871 61.5494L207.926 59.2705C197.46 57.7513 187.324 54.5429 187.324 42.219C187.324 28.7057 198.3 23.3083 217.213 23.3083C229.628 23.3083 248.031 25.3373 249.131 42.4689H230.988V42.4789Z" fill="white"/>
<path d="M302.339 72.8737H274.639L269.741 85.2876H252.098L278.608 25.0074H298.37L324.881 85.2776H307.237L302.339 72.8737ZM288.484 38.001L279.028 61.8992H297.941L288.484 38.001Z" fill="white"/>
<path d="M95.1245 57.4216H38.9554V52.8538H95.1245C102.662 52.8538 108.799 46.7169 108.799 39.1806C108.799 31.6443 102.662 25.5074 95.1245 25.5074H38.9554V0H27.5597V18.3509L13.0151 3.80811L4.95815 11.8641L18.623 25.5274H1.49944V36.9117H27.5697V41.4795H13.6749C6.13771 41.4695 0 47.6064 0 55.1427C0 62.679 6.13771 68.8159 13.6749 68.8159H27.5697V73.3837H1.49944V84.768H27.5697V101H38.9554V84.768H95.1245C102.662 84.768 108.799 78.6311 108.799 71.0948C108.789 63.5585 102.662 57.4216 95.1245 57.4216ZM38.9554 36.9017H95.1245C96.364 36.9017 97.4036 37.9512 97.4036 39.1806C97.4036 40.42 96.354 41.4595 95.1245 41.4595H38.9554V36.9017ZM13.6749 57.4216C12.4354 57.4216 11.3957 56.3721 11.3957 55.1427C11.3957 53.9133 12.4454 52.8638 13.6749 52.8638H27.5697V57.4316H13.6749V57.4216ZM95.1245 73.3737H38.9554V68.8059H95.1245C96.364 68.8059 97.4036 69.8554 97.4036 71.0848C97.4036 72.3342 96.354 73.3737 95.1245 73.3737Z" fill="white"/>
</svg>
