<svg width="90" height="28" viewBox="0 0 90 28" fill="none" xmlns="http://www.w3.org/2000/svg">
<path d="M45.1804 20.188H37.5068L36.1499 23.6269H31.2622L38.6062 6.92773H44.081L51.425 23.6269H46.5373L45.1804 20.188ZM41.345 10.5273L38.7253 17.1477H43.9647L41.345 10.5273Z" fill="black" fill-opacity="0.75"/>
<path d="M63.9887 11.7678C63.6841 9.59142 61.6265 9.35883 59.8016 9.35883C57.9296 9.35883 56.7139 10.2006 56.7139 11.3247C56.7139 12.2357 57.4394 12.7037 58.633 12.8919L64.3182 13.8029C67.3588 14.293 69.6739 15.4172 69.6739 18.4796C69.6739 21.5669 67.5693 24.0921 60.9951 24.0921C56.9493 24.0921 51.5908 23.5771 51.5908 18.3633H56.689C56.7582 20.6781 59.029 21.0519 60.9924 21.0519C63.1441 21.0519 64.5702 20.4427 64.5702 18.9697C64.5702 17.6821 63.5401 17.3333 61.7401 17.0508L57.6001 16.4195C54.7007 15.9986 51.8927 15.1098 51.8927 11.6958C51.8927 7.95223 54.9333 6.45703 60.1727 6.45703C63.6121 6.45703 68.7102 7.01912 69.0148 11.765H63.9887V11.7678Z" fill="black" fill-opacity="0.75"/>
<path d="M83.7551 20.188H76.0815L74.7246 23.6269H69.8369L77.1809 6.92773H82.6557L89.9997 23.6242H85.112L83.7551 20.188ZM79.9169 10.5273L77.2972 17.1477H82.5366L79.9169 10.5273Z" fill="black" fill-opacity="0.75"/>
<path d="M26.352 15.9073H10.7917V14.6419H26.352C28.44 14.6419 30.1403 12.9418 30.1403 10.8541C30.1403 8.76632 28.44 7.06622 26.352 7.06622H10.7917V0H7.63477V5.08369L3.60554 1.05495L1.37354 3.28668L5.15908 7.07176H0.415385V10.2255H7.63754V11.4909H3.78831C1.70031 11.4881 0 13.1882 0 15.276C0 17.3637 1.70031 19.0638 3.78831 19.0638H7.63754V20.3292H0.415385V23.483H7.63754V27.9797H10.7917V23.483H26.352C28.44 23.483 30.1403 21.7829 30.1403 19.6952C30.1375 17.6074 28.44 15.9073 26.352 15.9073ZM10.7917 10.2228H26.352C26.6954 10.2228 26.9834 10.5135 26.9834 10.8541C26.9834 11.1974 26.6926 11.4854 26.352 11.4854H10.7917V10.2228ZM3.78831 15.9073C3.44492 15.9073 3.15692 15.6166 3.15692 15.276C3.15692 14.9354 3.44769 14.6447 3.78831 14.6447H7.63754V15.9101H3.78831V15.9073ZM26.352 20.3265H10.7917V19.0611H26.352C26.6954 19.0611 26.9834 19.3518 26.9834 19.6924C26.9834 20.0385 26.6926 20.3265 26.352 20.3265Z" fill="black" fill-opacity="0.75"/>
</svg>
