<svg width="47" height="82" viewBox="0 0 47 82" fill="none" xmlns="http://www.w3.org/2000/svg">
<path d="M23 82C26.866 82 30 78.866 30 75C30 71.134 26.866 68 23 68C19.134 68 16 71.134 16 75C16 78.866 19.134 82 23 82Z" fill="white"/>
<path d="M23.5 47.0002C36.4787 47.0002 47 36.4788 47 23.5001C47 10.5213 36.4787 0 23.5 0C10.5213 0 0 10.5213 0 23.5001C0 36.4788 10.5213 47.0002 23.5 47.0002Z" fill="#DF574E"/>
<path d="M35.2139 32.9449H8.285V30.4927H35.2119C35.8004 30.4927 36.2806 30.0145 36.2806 29.424C36.2806 28.8334 35.8025 28.3552 35.2119 28.3552H11.7875C9.84622 28.3552 8.2666 26.7756 8.2666 24.8343C8.2666 22.893 9.84622 21.3134 11.7875 21.3134H35.2139C35.8025 21.3134 36.2827 20.8352 36.2827 20.2446C36.2827 19.6541 35.8045 19.1759 35.2139 19.1759H8.285V16.7237H35.2119C37.1532 16.7237 38.7328 18.3033 38.7328 20.2446C38.7328 22.1859 37.1532 23.7655 35.2119 23.7655H11.7875C11.199 23.7655 10.7188 24.2437 10.7188 24.8343C10.7188 25.4249 11.199 25.903 11.7875 25.903H35.2139C37.1552 25.903 38.7349 27.4826 38.7349 29.424C38.7328 31.3653 37.1552 32.9449 35.2139 32.9449Z" fill="white"/>
<path d="M18.6485 8.97504H16.1963V38.0252H18.6485V8.97504Z" fill="white"/>
<path d="M11.3052 10.3604L9.57129 12.0943L15.3352 17.8582L17.0691 16.1243L11.3052 10.3604Z" fill="white"/>
</svg>
