<svg width="51" height="41" viewBox="0 0 51 41" fill="none" xmlns="http://www.w3.org/2000/svg">
<path d="M38.13 32.9633C29.7522 30.4188 21.5482 27.9271 13.1932 25.3898C13.1932 29.5221 13.2095 33.4211 13.186 37.3202C13.175 39.1822 12.0411 40.4912 10.3654 40.6866C8.28984 40.9289 6.69229 39.5593 6.66559 37.4069C6.62326 33.9526 6.65192 30.4976 6.65062 27.0427C6.65062 26.5562 6.65062 26.0691 6.65062 25.3618C5.535 25.3618 4.52229 25.3833 3.51023 25.3572C1.378 25.3025 0.0643964 24.0404 0.0344383 21.9082C-0.00984752 18.7235 -0.0137532 15.5369 0.036394 12.3522C0.0696084 10.2539 1.4607 8.71168 3.54344 8.95265C11.8125 9.9087 19.3535 7.07637 27.0012 4.73053C30.677 3.6032 34.3566 2.48759 38.1294 1.33746C38.13 11.8937 38.13 22.3256 38.13 32.9633ZM7.92058 12.614C6.93717 12.614 5.95376 12.6245 4.97036 12.6114C3.92117 12.5971 3.36369 13.1311 3.34741 14.1458C3.31485 16.1569 3.32136 18.1686 3.34546 20.1797C3.35718 21.1364 3.9088 21.7017 4.85117 21.7206C6.86162 21.7616 8.87402 21.7571 10.8851 21.7232C11.8138 21.7076 12.4143 21.2178 12.4234 20.2312C12.4416 18.1751 12.4442 16.1191 12.4201 14.0631C12.4084 13.0797 11.8379 12.616 10.8714 12.6153C9.88673 12.6147 8.90333 12.6153 7.92058 12.614Z" fill="black" fill-opacity="0.75"/>
<path d="M43.9152 24.353C43.9152 27.0102 43.936 29.6067 43.9073 32.2033C43.8898 33.8308 42.9624 34.4065 41.4241 33.993C40.5266 33.7514 40.6413 33.175 40.6413 32.5576C40.6413 27.2199 40.6413 21.8828 40.6413 16.5451C40.6413 11.6561 40.696 6.7664 40.6048 1.87869C40.5801 0.574869 41.1336 0.201045 42.2141 0.190625C43.2984 0.180205 43.8904 0.775457 43.9034 1.85069C43.9301 4.09298 43.9555 6.33657 43.8982 8.5782C43.8728 9.5577 44.0311 10.0474 45.1662 10.291C48.2558 10.954 50.4688 13.8619 50.5398 17.0387C50.6088 20.1257 48.5131 23.0153 45.5205 23.9434C45.051 24.0893 44.5684 24.1876 43.9152 24.353Z" fill="black" fill-opacity="0.75"/>
</svg>
