<svg width="50" height="46" viewBox="0 0 50 46" fill="none" xmlns="http://www.w3.org/2000/svg">
<path d="M26.8872 44.4933C27.0617 43.9241 27.1657 43.5436 27.2934 43.1708C30.496 33.826 33.7141 24.487 36.8859 15.1313C37.1958 14.2162 37.6437 13.896 38.5934 13.9114C41.7293 13.9608 44.8672 13.9153 48.0037 13.9473C48.4433 13.9518 48.8802 14.188 49.3185 14.3163C49.1831 14.7135 49.1273 15.1633 48.9014 15.4996C42.2574 25.3982 35.6006 35.2871 28.9239 45.1632C28.6833 45.5187 28.2213 45.724 27.8619 46C27.5212 45.4731 27.1805 44.9463 26.8872 44.4933Z" fill="black" fill-opacity="0.75"/>
<path d="M6.03706 13.9313C7.67207 13.9307 9.30773 13.9634 10.9415 13.9172C11.7365 13.8948 12.1189 14.204 12.373 14.9503C15.6174 24.4684 18.8919 33.9768 22.1389 43.4936C22.2736 43.8882 22.3294 44.3797 22.2184 44.7686C22.1125 45.1395 21.7955 45.5489 21.4599 45.7099C21.3059 45.7837 20.8009 45.3615 20.5988 45.0657C13.8515 35.1819 7.11766 25.2884 0.394088 15.3886C-0.300857 14.3651 -0.089743 13.9621 1.13138 13.939C2.76704 13.9089 4.40205 13.932 6.03706 13.9313Z" fill="black" fill-opacity="0.75"/>
<path d="M24.7246 13.9307C26.8877 13.9301 29.0509 13.9198 31.214 13.9339C32.6148 13.9429 32.7637 14.1213 32.3498 15.3816C30.0519 22.372 27.7457 29.3593 25.4132 36.3382C25.2913 36.7033 24.9062 36.9799 24.6438 37.2982C24.3788 36.9915 23.9854 36.7277 23.868 36.3722C21.5464 29.3426 19.2716 22.2982 16.9455 15.2699C16.5842 14.1778 16.9988 13.9205 17.9696 13.9269C20.2219 13.9416 22.4736 13.9314 24.7246 13.9307Z" fill="black" fill-opacity="0.75"/>
<path d="M5.36943 9.67891C4.13611 9.67891 2.90088 9.70907 1.66949 9.6603C1.31656 9.64618 0.809636 9.49025 0.675524 9.23871C0.563871 9.02888 0.805783 8.49757 1.04192 8.25502C2.91756 6.33062 4.83297 4.44535 6.72658 2.53828C7.37276 1.88761 7.8829 1.93381 8.19412 2.81741C8.8512 4.68342 9.46786 6.56354 10.1185 8.43212C10.4278 9.32021 10.0678 9.67698 9.2022 9.67827C7.92461 9.67955 6.64702 9.67826 5.36943 9.67891Z" fill="black" fill-opacity="0.75"/>
<path d="M43.8114 9.67699C42.5755 9.67699 41.339 9.68854 40.1031 9.67314C39.2529 9.66223 38.8852 9.33113 39.2189 8.41481C39.883 6.59307 40.4984 4.75402 41.1125 2.91496C41.4327 1.95629 41.8985 1.82217 42.6217 2.54984C44.5198 4.46013 46.4365 6.35244 48.323 8.27364C48.5444 8.49951 48.8229 9.00644 48.7305 9.13413C48.5367 9.40235 48.1196 9.63849 47.784 9.65261C46.4615 9.71036 45.1358 9.67699 43.8114 9.67699Z" fill="black" fill-opacity="0.75"/>
<path d="M16.6425 0.0074797C17.8803 0.00812138 19.1187 -0.0194709 20.3546 0.0286552C20.6549 0.0402054 21.1054 0.237843 21.1971 0.46564C21.2908 0.69857 21.115 1.15994 20.9058 1.37426C19.0854 3.24155 17.2354 5.08061 15.3841 6.91774C14.6834 7.61333 14.2323 7.33676 13.95 6.50643C13.3539 4.75143 12.7757 2.99001 12.1468 1.24721C11.81 0.313562 12.2226 0.0164632 13.0606 0.00940466C14.2554 -0.000862238 15.4489 0.00619633 16.6425 0.0074797Z" fill="black" fill-opacity="0.75"/>
<path d="M32.7109 0.00685757C33.8993 0.00621589 35.0871 0.00557419 36.2755 0.00621587C37.1501 0.00685755 37.4915 0.379674 37.1841 1.25621C36.5597 3.03816 35.9514 4.82588 35.3392 6.61233C35.0396 7.48758 34.5756 7.62747 33.9044 6.95434C32.0397 5.08512 30.1621 3.22874 28.3179 1.33963C28.1113 1.12787 27.924 0.660731 28.0228 0.451543C28.1325 0.219896 28.5772 0.0370165 28.8826 0.026108C30.1583 -0.0188097 31.4352 0.00814093 32.7109 0.00685757Z" fill="black" fill-opacity="0.75"/>
<path d="M24.6362 9.67889C23.3579 9.67954 22.0778 9.71419 20.8015 9.65836C20.4171 9.64168 20.0436 9.37217 19.665 9.21817C19.812 8.87679 19.8794 8.45906 20.12 8.20752C21.3379 6.93314 22.6161 5.71587 23.8424 4.44919C24.3878 3.8858 24.8229 3.85756 25.3837 4.44214C26.635 5.74603 27.9434 6.99474 29.1979 8.29607C29.4122 8.51874 29.6612 9.03593 29.5643 9.1617C29.3609 9.42415 28.9425 9.64232 28.6037 9.65644C27.2831 9.71098 25.9593 9.67825 24.6362 9.67889Z" fill="black" fill-opacity="0.75"/>
</svg>
