<svg width="41" height="39" viewBox="0 0 41 39" fill="none" xmlns="http://www.w3.org/2000/svg">
<path d="M0 22.3081C0.65363 20.8227 1.7883 20.2952 3.40401 20.3099C9.95867 20.363 16.5133 20.3318 23.068 20.3318C23.4737 20.3318 23.8813 20.3318 24.4542 20.3318C24.4542 19.9307 24.4542 19.5773 24.4542 19.2238C24.4542 16.1743 24.4505 13.1248 24.456 10.0753C24.4579 8.67048 24.915 8.17414 26.3343 8.14483C27.9629 8.11003 29.5951 8.10088 31.2237 8.1485C33.2121 8.2071 34.6956 9.08624 35.6357 10.9013C36.8658 13.2768 38.1731 15.6102 39.4491 17.96C40.3231 19.5699 40.7656 21.2842 40.76 23.1194C40.7509 26.0334 40.7619 28.9474 40.7564 31.8613C40.7527 34.2167 39.6933 35.2753 37.3469 35.2771C36.774 35.2771 36.2012 35.2771 35.4612 35.2771C35.6614 32.7679 34.3853 31.061 32.5199 29.702C31.3614 28.8595 30.0504 28.4052 28.611 28.4858C25.1849 28.6763 22.8109 31.147 22.1573 35.2057C20.3213 35.2057 18.4705 35.2057 16.506 35.2057C16.3389 33.0134 15.5898 31.0793 13.6363 29.81C12.1729 28.8595 10.5535 28.636 8.85154 28.81C5.66051 29.1379 3.62618 31.4071 3.20389 35.1068C1.82135 35.4951 1.03185 34.9969 0 33.083C0 29.4913 0 25.8997 0 22.3081ZM37.4129 20.2879C37.3615 20.0773 37.3524 19.9051 37.2789 19.7659C35.8468 17.0827 34.4331 14.3885 32.944 11.7383C32.731 11.3592 32.16 10.9855 31.7304 10.9581C30.2524 10.8628 28.7652 10.9214 27.2321 10.9214C27.2321 14.0717 27.2321 17.1578 27.2321 20.2879C30.6545 20.2879 34.0016 20.2879 37.4129 20.2879Z" fill="black" fill-opacity="0.75"/>
<path d="M21.7541 17.6065C15.3445 17.6065 9.1001 17.6065 2.69968 17.6065C2.69968 17.2548 2.69968 16.9307 2.69968 16.6065C2.69968 11.6943 2.69784 6.78213 2.70151 1.86813C2.70335 0.212427 2.92 0.00180113 4.58345 -3.03982e-05C9.64357 -3.03982e-05 14.7037 -0.00186193 19.7638 0.00180113C21.3648 0.00363267 21.7522 0.390086 21.7522 1.97802C21.7541 6.82243 21.7541 11.6668 21.7541 16.5131C21.7541 16.8446 21.7541 17.1761 21.7541 17.6065ZM10.8664 9.50562C9.8639 9.50562 9.01748 9.47449 8.17658 9.52394C7.91586 9.53859 7.53396 9.71259 7.44951 9.91405C7.36688 10.1082 7.52111 10.5056 7.69921 10.6906C8.90181 11.9342 10.1338 13.1485 11.3639 14.3628C11.8395 14.8317 12.3242 14.7914 12.7887 14.328C13.9895 13.1302 15.2013 11.9434 16.38 10.7254C16.5636 10.5349 16.7564 10.11 16.6664 9.95618C16.5324 9.72907 16.1578 9.54775 15.8714 9.52577C15.1425 9.46716 14.4044 9.50562 13.5562 9.50562C13.5562 7.1869 13.5562 5.00372 13.5562 2.82419C12.6088 2.82419 11.777 2.82419 10.8664 2.82419C10.8664 5.05134 10.8664 7.20888 10.8664 9.50562Z" fill="black" fill-opacity="0.75"/>
<path d="M24.9707 34.9969C24.9707 32.8741 26.726 31.1085 28.8521 31.0939C30.9562 31.0774 32.7573 32.8466 32.7885 34.9566C32.8198 37.0958 30.9874 38.931 28.8429 38.909C26.7076 38.8852 24.9707 37.1306 24.9707 34.9969Z" fill="black" fill-opacity="0.75"/>
<path d="M13.7386 34.9638C13.7606 37.0994 12.0513 38.8595 9.90864 38.9071C7.76965 38.9547 5.92627 37.1397 5.93362 34.9895C5.94096 32.8814 7.71824 31.1048 9.83336 31.0938C11.9521 31.0828 13.7166 32.8301 13.7386 34.9638Z" fill="black" fill-opacity="0.75"/>
</svg>
