<svg width="40" height="40" viewBox="0 0 40 40" fill="none" xmlns="http://www.w3.org/2000/svg">
<path d="M34.6369 7.7711C35.5691 7.7711 36.4382 7.75269 37.3057 7.77531C38.8013 7.81424 39.8729 8.77485 39.955 10.251C40.0271 11.5515 39.9981 12.8598 39.9676 14.1639C39.946 15.0683 39.4305 15.5486 38.5214 15.5875C38.3042 15.597 38.0864 15.5912 37.8691 15.5912C25.9462 15.5912 14.0227 15.5917 2.09977 15.5906C0.363196 15.5906 0.00967305 15.2345 0.00704268 13.4969C0.00546446 12.5184 -0.0103136 11.5394 0.0112554 10.5614C0.0501848 8.82851 1.08286 7.80109 2.80207 7.77215C3.63379 7.75795 4.46605 7.76952 5.20729 7.76952C5.07735 6.67845 4.77012 5.61052 4.86586 4.57942C5.05525 2.53721 6.23681 1.10629 8.16276 0.370315C10.0572 -0.353561 11.8137 -0.00214437 13.3383 1.30146C14.7697 2.52563 16.1533 3.80767 17.53 5.09339C17.9893 5.52214 18.3344 5.71995 19.0188 5.41272C19.5502 5.17441 20.3671 5.13706 20.8759 5.38379C21.6523 5.76045 22.0401 5.48321 22.5467 5.00396C23.7314 3.88395 24.9582 2.80866 26.1655 1.71233C28.3456 -0.268337 30.7987 -0.522956 32.994 0.967933C34.8184 2.20683 35.9105 4.98765 34.6595 7.43705C34.6311 7.49491 34.6485 7.57488 34.6369 7.7711ZM16.6078 7.76584C14.8165 6.14028 13.2673 4.70094 11.6801 3.30475C10.7247 2.46461 9.57843 2.40148 8.57889 3.04013C7.67141 3.61986 7.20636 4.74776 7.4552 5.76466C7.7398 6.92518 8.70935 7.73585 9.97667 7.75637C12.0699 7.79057 14.1632 7.76584 16.6078 7.76584ZM23.3779 7.75216C25.8567 7.75216 28.0231 7.80372 30.1847 7.73165C31.3789 7.69219 32.3195 6.76157 32.5463 5.65787C32.7493 4.66938 32.2733 3.58409 31.3947 3.03382C30.4262 2.42726 29.2936 2.45987 28.3677 3.26003C26.7537 4.65517 25.1923 6.1124 23.3779 7.75216ZM20.0341 9.46242C20.9148 9.43822 21.6723 8.6386 21.6502 7.75637C21.6276 6.85416 20.8575 6.1245 19.9521 6.14764C19.0472 6.17079 18.3081 6.94359 18.3344 7.83844C18.3607 8.72487 19.1582 9.48715 20.0341 9.46242Z" fill="black" fill-opacity="0.75"/>
<path d="M2.6157 17.5745C7.60655 17.5745 12.4212 17.5745 17.3121 17.5745C17.3121 24.9805 17.3121 32.3566 17.3121 39.9083C16.987 39.9083 16.6429 39.9083 16.2989 39.9083C12.8194 39.9083 9.33996 39.9126 5.86052 39.9068C3.57631 39.9026 2.61781 38.9456 2.61676 36.6756C2.61413 30.6952 2.6157 24.7154 2.6157 18.735C2.6157 18.3804 2.6157 18.0269 2.6157 17.5745Z" fill="black" fill-opacity="0.75"/>
<path d="M37.3703 17.6238C37.3703 24.257 37.3877 30.7782 37.3566 37.2994C37.3498 38.7493 36.3571 39.8403 34.9141 39.8651C30.8628 39.9335 26.8099 39.8887 22.6797 39.8887C22.6797 32.4485 22.6797 25.0766 22.6797 17.6238C27.5259 17.6238 32.39 17.6238 37.3703 17.6238Z" fill="black" fill-opacity="0.75"/>
</svg>
