<svg width="47" height="37" viewBox="0 0 47 37" fill="none" xmlns="http://www.w3.org/2000/svg">
<path d="M34.8144 29.923C27.165 27.5998 19.6745 25.3247 12.046 23.0081C12.046 26.781 12.0608 30.341 12.0394 33.9011C12.0293 35.6011 10.9941 36.7963 9.46407 36.9747C7.56898 37.1959 6.11036 35.9454 6.08598 33.9802C6.04733 30.8263 6.07349 27.6717 6.0723 24.5172C6.0723 24.0731 6.0723 23.6283 6.0723 22.9825C5.0537 22.9825 4.12905 23.0021 3.20499 22.9783C1.25817 22.9284 0.0587967 21.776 0.0314437 19.8292C-0.00899121 16.9215 -0.0125573 14.0119 0.0332293 11.1042C0.0635555 9.1883 1.33368 7.78022 3.23531 8.00024C10.7853 8.87315 17.6706 6.28711 24.6533 4.14526C28.0094 3.11596 31.3691 2.09736 34.8138 1.04724C34.8144 10.6856 34.8144 20.2103 34.8144 29.923ZM7.23183 11.3432C6.33394 11.3432 5.43604 11.3528 4.53815 11.3409C3.5802 11.3278 3.0712 11.8154 3.05633 12.7418C3.0266 14.578 3.03255 16.4148 3.05455 18.251C3.06525 19.1246 3.5689 19.6407 4.42933 19.6579C6.26496 19.6954 8.10236 19.6912 9.93858 19.6603C10.7865 19.646 11.3348 19.1989 11.3431 18.298C11.3597 16.4208 11.3621 14.5435 11.3401 12.6663C11.3294 11.7684 10.8085 11.345 9.9261 11.3444C9.02702 11.3438 8.12913 11.3444 7.23183 11.3432Z" fill="black" fill-opacity="0.75"/>
<path d="M40.0965 22.0614C40.0965 24.4875 40.1155 26.8583 40.0893 29.2291C40.0733 30.7151 39.2265 31.2407 37.822 30.8631C37.0026 30.6425 37.1073 30.1163 37.1073 29.5526C37.1073 24.679 37.1073 19.806 37.1073 14.9324C37.1073 10.4686 37.1572 6.00409 37.074 1.5414C37.0514 0.350954 37.5568 0.00963689 38.5433 0.000122835C39.5334 -0.00939122 40.0739 0.5341 40.0858 1.51583C40.1101 3.56314 40.1333 5.61163 40.081 7.65835C40.0578 8.55267 40.2023 8.99983 41.2388 9.22222C44.0597 9.82755 46.0802 12.4826 46.1451 15.3832C46.2081 18.2017 44.2946 20.8401 41.5622 21.6874C41.1335 21.8206 40.6929 21.9104 40.0965 22.0614Z" fill="black" fill-opacity="0.75"/>
</svg>
