<svg width="26" height="26" viewBox="0 0 26 26" fill="none" xmlns="http://www.w3.org/2000/svg">
<g clip-path="url(#clip0)">
<path fill-rule="evenodd" clip-rule="evenodd" d="M12.9462 25.8923C20.0961 25.8923 25.8923 20.0961 25.8923 12.9462C25.8923 5.79619 20.0961 0 12.9462 0C5.79619 0 0 5.79619 0 12.9462C0 20.0961 5.79619 25.8923 12.9462 25.8923Z" fill="white"/>
<path fill-rule="evenodd" clip-rule="evenodd" d="M19.81 9.24748C20.0335 14.2285 16.3194 19.7822 9.74396 19.7822C7.74415 19.7822 5.88262 19.1956 4.31543 18.1908C6.19393 18.4122 8.06947 17.8914 9.55819 16.7242C8.00882 16.6958 6.70078 15.6719 6.25034 14.265C6.80512 14.3711 7.35098 14.3401 7.84934 14.2048C6.14601 13.8621 4.97072 12.328 5.00889 10.6874C5.48647 10.9525 6.03276 11.112 6.61341 11.1298C5.03604 10.0762 4.58942 7.99373 5.51743 6.40194C7.26361 8.54468 9.8729 9.95452 12.8164 10.1025C12.3002 7.88685 13.9807 5.75386 16.2663 5.75386C17.2851 5.75386 18.2055 6.18351 18.851 6.87189C19.6577 6.71326 20.4157 6.41848 21.0998 6.01258C20.8356 6.83965 20.274 7.53396 19.5428 7.97167C20.2592 7.88642 20.9416 7.69599 21.577 7.41436C21.1024 8.12479 20.5018 8.74827 19.81 9.24748Z" fill="#262626" fill-opacity="0.91"/>
</g>
<defs>
<clipPath id="clip0">
<rect width="25.8923" height="25.8923" fill="white"/>
</clipPath>
</defs>
</svg>
