<svg width="34" height="34" viewBox="0 0 34 34" fill="none" xmlns="http://www.w3.org/2000/svg">
<path fill-rule="evenodd" clip-rule="evenodd" d="M17 34C26.3888 34 34 26.3888 34 17C34 7.61116 26.3888 0 17 0C7.61116 0 0 7.61116 0 17C0 26.3888 7.61116 34 17 34Z" fill="black" fill-opacity="0.75"/>
<path fill-rule="evenodd" clip-rule="evenodd" d="M24.3028 6.33598V10.7326L21.6934 10.7394C19.648 10.7394 19.2539 11.7111 19.2539 13.1314V16.2776H24.1262L23.4942 21.1975H19.2539V34H14.1716V21.1975H9.91699V16.2776H14.1716V12.6489C14.1716 8.43576 16.7396 6.13892 20.5042 6.13892C22.2989 6.13892 23.8475 6.27482 24.3028 6.33598Z" fill="white"/>
</svg>
