<svg width="38" height="35" viewBox="0 0 38 35" fill="none" xmlns="http://www.w3.org/2000/svg">
<path d="M20.457 33.8537C20.5898 33.4206 20.6689 33.1311 20.7661 32.8474C23.2029 25.7373 25.6514 18.6315 28.0647 11.513C28.3005 10.8168 28.6413 10.5732 29.3639 10.5849C31.7499 10.6225 34.1374 10.5878 36.5239 10.6122C36.8584 10.6156 37.1908 10.7953 37.5243 10.8929C37.4213 11.1952 37.3788 11.5374 37.207 11.7933C32.1518 19.3248 27.0868 26.849 22.0067 34.3634C21.8236 34.6339 21.4721 34.7901 21.1987 35.0001C20.9394 34.5992 20.6802 34.1984 20.457 33.8537Z" fill="black" fill-opacity="0.75"/>
<path d="M4.59341 10.6C5.83744 10.5995 7.08196 10.6244 8.32502 10.5892C8.92994 10.5722 9.22092 10.8075 9.41427 11.3753C11.8828 18.6173 14.3743 25.852 16.8448 33.093C16.9473 33.3932 16.9898 33.7672 16.9053 34.0631C16.8247 34.3453 16.5836 34.6568 16.3282 34.7793C16.211 34.8355 15.8268 34.5142 15.673 34.2892C10.5392 26.7689 5.4156 19.2413 0.299849 11.7088C-0.228912 10.93 -0.0682827 10.6234 0.860834 10.6058C2.10535 10.5829 3.34938 10.6005 4.59341 10.6Z" fill="black" fill-opacity="0.75"/>
<path d="M18.812 10.5994C20.4579 10.5989 22.1037 10.5911 23.7496 10.6018C24.8154 10.6087 24.9287 10.7444 24.6138 11.7033C22.8654 17.0221 21.1107 22.3385 19.3359 27.6486C19.2432 27.9264 18.9502 28.1368 18.7505 28.379C18.5489 28.1456 18.2496 27.9449 18.1603 27.6744C16.3938 22.3258 14.663 16.966 12.8931 11.6183C12.6183 10.7874 12.9337 10.5916 13.6724 10.5965C15.3861 10.6077 17.0993 10.5999 18.812 10.5994Z" fill="black" fill-opacity="0.75"/>
<path d="M4.08499 7.36456C3.14659 7.36456 2.20674 7.38751 1.26982 7.3504C1.00129 7.33966 0.615581 7.22102 0.51354 7.02963C0.428586 6.86998 0.61265 6.46572 0.792321 6.28117C2.21944 4.81695 3.67681 3.38252 5.1176 1.93148C5.60925 1.43641 5.99741 1.47156 6.2342 2.14386C6.73416 3.56365 7.20335 4.99418 7.69842 6.41592C7.93375 7.09164 7.65985 7.3631 7.00122 7.36407C6.02914 7.36505 5.05706 7.36407 4.08499 7.36456Z" fill="black" fill-opacity="0.75"/>
<path d="M33.3334 7.36301C32.393 7.36301 31.4522 7.3718 30.5118 7.36008C29.8649 7.35178 29.5852 7.09986 29.8391 6.40266C30.3444 5.01656 30.8126 3.61727 31.2798 2.21799C31.5235 1.48857 31.8779 1.38653 32.4282 1.94019C33.8724 3.39366 35.3307 4.83347 36.7661 6.29524C36.9346 6.4671 37.1465 6.85281 37.0762 6.94997C36.9287 7.15405 36.6114 7.33372 36.356 7.34446C35.3498 7.3884 34.3411 7.36301 33.3334 7.36301Z" fill="black" fill-opacity="0.75"/>
<path d="M12.6624 0.00579589C13.6042 0.00628412 14.5465 -0.01471 15.4868 0.0219076C15.7153 0.0306959 16.0581 0.181072 16.1279 0.354396C16.1992 0.531625 16.0654 0.882666 15.9062 1.04574C14.5211 2.4665 13.1135 3.86578 11.7049 5.2636C11.1718 5.79285 10.8286 5.58242 10.6137 4.95064C10.1602 3.61532 9.72025 2.27511 9.24178 0.949066C8.98545 0.238684 9.2994 0.0126311 9.93704 0.00726054C10.8461 -0.000551228 11.7542 0.00481942 12.6624 0.00579589Z" fill="black" fill-opacity="0.75"/>
<path d="M24.8905 0.00521771C25.7947 0.00472948 26.6984 0.00424123 27.6026 0.00472946C28.2681 0.0052177 28.5278 0.288882 28.294 0.955812C27.8189 2.31164 27.3561 3.67187 26.8903 5.03111C26.6623 5.69707 26.3093 5.8035 25.7986 5.29134C24.3798 3.86911 22.9512 2.45665 21.548 1.01928C21.3908 0.858165 21.2482 0.502729 21.3234 0.343565C21.4069 0.167312 21.7452 0.0281647 21.9776 0.0198647C22.9483 -0.0143117 23.9199 0.00619418 24.8905 0.00521771Z" fill="black" fill-opacity="0.75"/>
<path d="M18.7453 7.36436C17.7727 7.36484 16.7987 7.39121 15.8276 7.34873C15.5351 7.33604 15.251 7.13098 14.9629 7.0138C15.0747 6.75406 15.126 6.43622 15.309 6.24483C16.2357 5.2752 17.2083 4.34902 18.1413 3.38524C18.5563 2.95657 18.8873 2.93509 19.3141 3.37987C20.2661 4.37196 21.2617 5.32207 22.2162 6.31221C22.3792 6.48163 22.5687 6.87514 22.4949 6.97084C22.3402 7.17053 22.0218 7.33653 21.7641 7.34727C20.7593 7.38877 19.752 7.36387 18.7453 7.36436Z" fill="black" fill-opacity="0.75"/>
</svg>
