<svg width="49" height="46" viewBox="0 0 49 46" fill="none" xmlns="http://www.w3.org/2000/svg">
<g clip-path="url(#clip0)">
<path d="M0 26.3735C0.772749 24.6175 2.11421 23.9939 4.02437 24.0112C11.7736 24.074 19.5228 24.0372 27.272 24.0372C27.7517 24.0372 28.2336 24.0372 28.9108 24.0372C28.9108 23.563 28.9108 23.145 28.9108 22.7271C28.9108 19.1219 28.9065 15.5166 28.913 11.9114C28.9152 10.2506 29.4556 9.66379 31.1336 9.62914C33.0589 9.588 34.9886 9.57717 36.914 9.63347C39.2648 9.70276 41.0187 10.7421 42.13 12.8879C43.5844 15.6964 45.1299 18.455 46.6385 21.2331C47.6717 23.1364 48.1948 25.1631 48.1883 27.3328C48.1775 30.7778 48.1905 34.2228 48.184 37.6678C48.1796 40.4524 46.9272 41.704 44.1531 41.7061C43.4758 41.7061 42.7986 41.7061 41.9238 41.7061C42.1604 38.7397 40.6518 36.7216 38.4465 35.1149C37.0768 34.1189 35.5269 33.5819 33.8252 33.6772C29.7747 33.9023 26.9681 36.8234 26.1953 41.6217C24.0247 41.6217 21.8367 41.6217 19.5141 41.6217C19.3166 39.0298 18.4309 36.7432 16.1214 35.2427C14.3914 34.1189 12.4769 33.8547 10.4647 34.0604C6.6921 34.448 4.28702 37.1308 3.78777 41.5048C2.15328 41.9638 1.2199 41.3749 0 39.1121C0 34.8659 0 30.6197 0 26.3735ZM44.2312 23.9852C44.1704 23.7362 44.1596 23.5326 44.0728 23.3681C42.3797 20.1959 40.7083 17.0107 38.9479 13.8775C38.6961 13.4293 38.021 12.9875 37.5131 12.9551C35.7657 12.8425 34.0075 12.9118 32.195 12.9118C32.195 16.6361 32.195 20.2847 32.195 23.9852C36.2411 23.9852 40.1982 23.9852 44.2312 23.9852Z" fill="black" fill-opacity="0.75"/>
<path d="M25.7179 20.8152C18.1402 20.8152 10.7578 20.8152 3.19097 20.8152C3.19097 20.3994 3.19097 20.0162 3.19097 19.6329C3.19097 13.8255 3.1888 8.01816 3.19314 2.20862C3.19531 0.251169 3.45145 0.00215733 5.41805 -7.98708e-06C11.4003 -7.98708e-06 17.3826 -0.0021733 23.3649 0.00215733C25.2577 0.00432265 25.7157 0.461205 25.7157 2.33853C25.7179 8.0658 25.7179 13.7931 25.7179 19.5225C25.7179 19.9144 25.7179 20.3063 25.7179 20.8152ZM12.846 11.238C11.6608 11.238 10.6602 11.2012 9.666 11.2596C9.35777 11.277 8.90628 11.4827 8.80643 11.7209C8.70875 11.9504 8.89108 12.4203 9.10163 12.6389C10.5234 14.1092 11.9799 15.5448 13.4342 16.9804C13.9964 17.5347 14.5695 17.4871 15.1187 16.9393C16.5383 15.5232 17.9709 14.12 19.3644 12.6801C19.5815 12.4549 19.8094 11.9525 19.7031 11.7707C19.5446 11.5022 19.1018 11.2878 18.7632 11.2618C17.9014 11.1925 17.0288 11.238 16.026 11.238C16.026 8.4967 16.026 5.91564 16.026 3.33891C14.9059 3.33891 13.9226 3.33891 12.846 3.33891C12.846 5.97194 12.846 8.52268 12.846 11.238Z" fill="black" fill-opacity="0.75"/>
<path d="M29.5205 41.3749C29.5205 38.8653 31.5956 36.7779 34.1092 36.7606C36.5968 36.7411 38.7262 38.8328 38.7631 41.3272C38.8 43.8563 36.6337 46.026 34.0984 46C31.5739 45.9718 29.5205 43.8975 29.5205 41.3749Z" fill="black" fill-opacity="0.75"/>
<path d="M16.2431 41.3359C16.2691 43.8607 14.2482 45.9416 11.7151 45.9979C9.18629 46.0542 7.00697 43.9083 7.01565 41.3662C7.02433 38.874 9.12552 36.7736 11.6261 36.7606C14.131 36.7476 16.217 38.8133 16.2431 41.3359Z" fill="black" fill-opacity="0.75"/>
</g>
<defs>
<clipPath id="clip0">
<rect width="48.1905" height="46" fill="white"/>
</clipPath>
</defs>
</svg>
