<svg width="47" height="46" viewBox="0 0 47 46" fill="none" xmlns="http://www.w3.org/2000/svg">
<path d="M39.9224 8.95696C40.9969 8.95696 41.9986 8.93574 42.9984 8.96181C44.7223 9.00668 45.9575 10.1139 46.052 11.8153C46.1351 13.3142 46.1018 14.8222 46.0666 16.3253C46.0417 17.3676 45.4475 17.9212 44.3997 17.9661C44.1493 17.977 43.8983 17.9704 43.6478 17.9704C29.9055 17.9704 16.1625 17.971 2.42019 17.9697C0.418619 17.9697 0.0111491 17.5592 0.00811738 15.5565C0.00629833 14.4287 -0.0118875 13.3002 0.0129729 12.173C0.057843 10.1757 1.24811 8.99152 3.22966 8.95817C4.18831 8.9418 5.14756 8.95514 6.00191 8.95514C5.85214 7.69757 5.49803 6.46668 5.60839 5.27823C5.82667 2.92438 7.18853 1.27511 9.40839 0.426824C11.5919 -0.407514 13.6165 -0.0024716 15.3737 1.50006C17.0236 2.91104 18.6183 4.38872 20.2051 5.87064C20.7344 6.36481 21.1322 6.5928 21.9211 6.23869C22.5335 5.96401 23.4751 5.92096 24.0615 6.20534C24.9565 6.63949 25.4033 6.31994 25.9873 5.76756C27.3528 4.47664 28.7668 3.23726 30.1583 1.97362C32.6711 -0.309285 35.4985 -0.602758 38.0288 1.11564C40.1316 2.54359 41.3904 5.74876 39.9485 8.57193C39.9158 8.63862 39.9358 8.73079 39.9224 8.95696ZM19.1422 8.95089C17.0775 7.07727 15.2918 5.4183 13.4625 3.80905C12.3613 2.8407 11.0401 2.76794 9.88801 3.50405C8.84206 4.17225 8.30604 5.47226 8.59285 6.64434C8.92088 7.98195 10.0384 8.91633 11.4991 8.93998C13.9118 8.97939 16.3244 8.95089 19.1422 8.95089ZM26.9453 8.93513C29.8024 8.93513 32.2994 8.99455 34.7909 8.91148C36.1673 8.86601 37.2514 7.79337 37.5128 6.52125C37.7468 5.38192 37.1981 4.13102 36.1855 3.49678C35.0692 2.79765 33.7637 2.83525 32.6965 3.75751C30.8363 5.36555 29.0366 7.04514 26.9453 8.93513ZM23.0913 10.9064C24.1063 10.8785 24.9795 9.95683 24.954 8.93998C24.928 7.90009 24.0403 7.05908 22.9967 7.08576C21.9538 7.11244 21.1019 8.00317 21.1322 9.03457C21.1625 10.0563 22.0817 10.9349 23.0913 10.9064Z" fill="black" fill-opacity="0.75"/>
<path d="M3.01372 20.2563C8.76617 20.2563 14.3155 20.2563 19.9527 20.2563C19.9527 28.7925 19.9527 37.2941 19.9527 45.9983C19.578 45.9983 19.1814 45.9983 18.7849 45.9983C14.7745 45.9983 10.7641 46.0031 6.75369 45.9965C4.12092 45.9916 3.01615 44.8887 3.01494 42.2723C3.01191 35.3793 3.01372 28.4869 3.01372 21.5939C3.01372 21.1852 3.01372 20.7777 3.01372 20.2563Z" fill="black" fill-opacity="0.75"/>
<path d="M43.073 20.3133C43.073 27.9588 43.093 35.4751 43.0572 42.9914C43.0494 44.6625 41.9052 45.9201 40.242 45.9486C35.5724 46.0274 30.9011 45.9758 26.1406 45.9758C26.1406 37.4002 26.1406 28.9035 26.1406 20.3133C31.7263 20.3133 37.3327 20.3133 43.073 20.3133Z" fill="black" fill-opacity="0.75"/>
</svg>
