<svg width="34" height="34" viewBox="0 0 34 34" fill="none" xmlns="http://www.w3.org/2000/svg">
<path fill-rule="evenodd" clip-rule="evenodd" d="M17 34C26.3888 34 34 26.3888 34 17C34 7.61116 26.3888 0 17 0C7.61116 0 0 7.61116 0 17C0 26.3888 7.61116 34 17 34Z" fill="black" fill-opacity="0.75"/>
<path fill-rule="evenodd" clip-rule="evenodd" d="M26.0129 12.1432C26.3064 18.684 21.4292 25.9767 12.7949 25.9767C10.1689 25.9767 7.72443 25.2064 5.6665 23.887C8.13323 24.1777 10.596 23.4938 12.5509 21.9611C10.5164 21.9237 8.79878 20.5793 8.2073 18.7319C8.93579 18.8711 9.65258 18.8305 10.307 18.6528C8.07029 18.2028 6.52699 16.1883 6.57711 14.034C7.20424 14.3821 7.92159 14.5915 8.68405 14.6149C6.61276 13.2315 6.02629 10.4968 7.24489 8.40662C9.53785 11.2203 12.9642 13.0716 16.8294 13.266C16.1516 10.3565 18.3582 7.5556 21.3596 7.5556C22.6974 7.5556 23.906 8.11979 24.7537 9.02372C25.813 8.81542 26.8082 8.42834 27.7066 7.89534C27.3596 8.98139 26.6222 9.89311 25.662 10.4679C26.6027 10.3559 27.4989 10.1059 28.3332 9.73605C27.7099 10.6689 26.9213 11.4877 26.0129 12.1432Z" fill="white"/>
</svg>
