<?xml version="1.0" standalone="no"?>
<!DOCTYPE svg PUBLIC "-//W3C//DTD SVG 20010904//EN"
 "http://www.w3.org/TR/2001/REC-SVG-20010904/DTD/svg10.dtd">
<svg version="1.0" xmlns="http://www.w3.org/2000/svg"
 width="260.000000pt" height="260.000000pt" viewBox="0 0 260.000000 260.000000"
 preserveAspectRatio="xMidYMid meet">
<metadata>
Created by potrace 1.11, written by Peter Selinger 2001-2013
</metadata>
<g transform="translate(0.000000,260.000000) scale(0.100000,-0.100000)"
fill="#000000" stroke="none">
<path d="M1150 2593 c-14 -2 -59 -11 -102 -19 -507 -99 -905 -490 -1018 -999
-35 -153 -35 -399 -1 -550 109 -481 470 -859 938 -980 137 -36 172 -40 343
-39 213 1 366 35 550 122 77 36 214 123 261 164 14 13 41 37 60 53 206 184
356 466 403 756 14 83 15 331 2 394 -4 17 -11 53 -16 80 -32 158 -123 360
-220 490 -198 264 -460 434 -785 507 -85 20 -342 32 -415 21z"/>
</g>
</svg>
